<?xml version="1.0" encoding="utf-8"?>
<!-- Generator: Adobe Illustrator 21.1.0, SVG Export Plug-In . SVG Version: 6.00 Build 0)  -->
<svg version="1.1" id="Layer_1" xmlns="http://www.w3.org/2000/svg" xmlns:xlink="http://www.w3.org/1999/xlink" x="0px" y="0px"
	 viewBox="0 0 276.5 276.5" style="enable-background:new 0 0 276.5 276.5;" xml:space="preserve">
<style type="text/css">
	.st0{fill:#FF8A00;}
</style>
<g>
	<path class="st0" d="M275.8,140.8c-1.6-3.5-5.8-5-9.3-3.4c-11.5,5.3-24.5,4.9-35.5-1c4-31.8-10.1-63.3-36.8-81.4
		c-19.2-13-42.3-17.4-64.2-13.1l-25.1-18.9c-2.5-1.9-5.9-1.9-8.4,0L2.8,93.6c-3.1,2.3-3.7,6.7-1.4,9.8c2.3,3.1,6.7,3.7,9.8,1.4
		l89.5-67.5l12.7,9.6c-3.4,1.4-6.8,3.1-10.1,5c-2.2-0.9-4.8-0.6-6.8,0.9L2.8,123.4C1,124.7,0,126.8,0,129v119c0,3.9,3.1,7,7,7h187.4
		c3.9,0,7-3.1,7-7v-91.3c7.6-1.8,15-4.7,21.9-8.6c8.2,4.6,17.2,7,26.4,7c7.7,0,15.4-1.7,22.7-5C275.9,148.5,277.5,144.3,275.8,140.8
		L275.8,140.8z M112.2,241H89.2v-50.8h22.9V241z M126.2,241v-57.8c0-3.9-3.1-7-7-7H82.2c-3.9,0-7,3.1-7,7V241H14V132.5l82.2-62
		c-1,29.1,12.9,57.2,37.5,73.8c14.5,9.8,31.2,14.7,48,14.7c1.9,0,3.9-0.1,5.8-0.2V241L126.2,241L126.2,241z M141.5,132.7
		c-22.6-15.3-34.4-42.2-30.7-69.1c23.6-13.5,52.9-12.4,75.5,2.9c20.4,13.8,32,36.9,31.3,61.1L156,85.8c-3.2-2.2-7.6-1.3-9.7,1.9
		s-1.3,7.6,1.9,9.7l61.7,41.8C187.7,148.7,161.9,146.5,141.5,132.7L141.5,132.7z"/>
</g>
</svg>
