<?xml version="1.0" encoding="utf-8"?>
<!-- Generator: Adobe Illustrator 21.1.0, SVG Export Plug-In . SVG Version: 6.00 Build 0)  -->
<svg version="1.1" id="Capa_1" xmlns="http://www.w3.org/2000/svg" xmlns:xlink="http://www.w3.org/1999/xlink" x="0px" y="0px"
	 viewBox="0 0 596.6 596.6" style="enable-background:new 0 0 596.6 596.6;" xml:space="preserve">
<style type="text/css">
	.st0{fill:#FF8A00;}
</style>
<g>
	<path class="st0" d="M346,96.3c0,0,61.2,12.4,98.6,55.4c37.4,43,36.1,47,51.1,88.6c5,13.6,15,12.4,18.7,11.7
		c3.7-0.6,15-6.2,8.4-25.6c-6.5-19.3-35.5-123.4-164.7-157.1c-13.3-2.5-18.2,1.9-20.3,7.9C335.7,83.4,337.2,94.1,346,96.3L346,96.3z
		"/>
	<path class="st0" d="M236.1,96.3c0,0-61.2,12.4-98.6,55.4c-37.4,43-36.1,47-51.1,88.6c-5,13.6-15,12.4-18.7,11.7
		c-3.7-0.6-15-6.2-8.4-25.6C65.8,207.2,94.7,103.1,224,69.4c13.3-2.5,18.2,1.9,20.3,7.9C246.4,83.4,244.9,94.1,236.1,96.3
		L236.1,96.3z"/>
	<path class="st0" d="M236.4,505.8c0,0-61.2-12.1-98.8-55c-37.6-42.9-36.4-46.8-51.5-88.4c-5.1-13.6-15-12.3-18.7-11.6
		c-3.7,0.6-15,6.3-8.3,25.6c6.6,19.3,36,123.3,165.4,156.4c13.3,2.4,18.2-2,20.3-8C246.7,518.6,245.1,508,236.4,505.8L236.4,505.8z"
		/>
	<path class="st0" d="M346.2,506.5c0,0,61.1-12.6,98.4-55.8c37.2-43.2,35.9-47.2,50.7-88.9c4.9-13.6,14.9-12.4,18.7-11.8
		c3.7,0.6,15,6.1,8.5,25.5c-6.5,19.3-35,123.6-164.1,157.8c-13.3,2.5-18.2-1.8-20.4-7.9C336,519.4,337.5,508.8,346.2,506.5
		L346.2,506.5z"/>
	<path class="st0" d="M349.3,194.1c0,0,30.4,11.5,48.6,49.3c4.9,8.4,12.9,11.2,21.3,7c8.4-4.2,8.2-14.5,6.3-18.2
		c-1.9-3.8-18.2-43.7-63.4-65c-8.4-2.8-14.5,4-16.4,5.8C343.9,175,340.4,186.4,349.3,194.1L349.3,194.1z"/>
	<path class="st0" d="M235.6,194.1c0,0-30.4,11.5-48.6,49.3c-4.9,8.4-12.9,11.2-21.3,7c-8.4-4.2-8.2-14.5-6.3-18.2
		c1.9-3.8,18.2-43.7,63.4-65c8.4-2.8,14.5,4,16.4,5.8C241,175,244.5,186.4,235.6,194.1L235.6,194.1z"/>
	<path class="st0" d="M235.6,401.8c0,0-30.4-11.5-48.6-49.3c-4.9-8.4-12.9-11.2-21.3-7c-8.4,4.2-8.2,14.5-6.3,18.2
		c1.9,3.7,18.2,43.7,63.4,65c8.4,2.8,14.5-4,16.4-5.9C241,421,244.5,409.5,235.6,401.8L235.6,401.8z"/>
	<g>
		<path class="st0" d="M349.3,401.8c0,0,30.4-11.4,48.6-49.4c4.9-8.4,12.9-11.2,21.3-7c8.4,4.2,8.2,14.5,6.3,18.2
			c-1.9,3.8-18.2,43.8-63.4,65c-8.4,2.8-14.5-4-16.4-5.8C343.9,421,340.4,409.5,349.3,401.8L349.3,401.8z"/>
		<path class="st0" d="M581.7,279.1H310V15c0-8.3-6.7-15-15-15h-8.4c-8.2,0-15,6.7-15,15v264.1H15c-8.3,0-15,6.7-15,15v8.4
			c0,8.3,6.7,15,15,15h256.7v264.2c0,8.3,6.7,15,15,15h8.4c8.2,0,15-6.7,15-15V317.4h271.6c8.3,0,15-6.7,15-15V294
			C596.6,285.8,589.9,279.1,581.7,279.1L581.7,279.1z"/>
	</g>
</g>
</svg>
