<?xml version="1.0" encoding="utf-8"?>
<!-- Generator: Adobe Illustrator 21.1.0, SVG Export Plug-In . SVG Version: 6.00 Build 0)  -->
<svg version="1.1" id="Layer_1" xmlns="http://www.w3.org/2000/svg" xmlns:xlink="http://www.w3.org/1999/xlink" x="0px" y="0px"
	 viewBox="0 0 512 512" style="enable-background:new 0 0 512 512;" xml:space="preserve">
<style type="text/css">
	.st0{fill:#FF8A00;}
</style>
<g>
	<g>
		<path class="st0" d="M136.3,309c-16.5,0-30,13.5-30,30c0,16.5,13.5,30,30,30s30-13.5,30-30S152.8,309,136.3,309z M136.3,352.1
			c-7.2,0-13.1-5.9-13.1-13.1s5.9-13.1,13.1-13.1s13.1,5.9,13.1,13.1S143.5,352.1,136.3,352.1z"/>
	</g>
</g>
<g>
	<g>
		<path class="st0" d="M360.4,309c-16.5,0-30,13.5-30,30c0,16.5,13.5,30,30,30s30-13.5,30-30C390.4,322.5,377,309,360.4,309z
			 M360.4,352.1c-7.2,0-13.1-5.9-13.1-13.1s5.9-13.1,13.1-13.1s13.1,5.9,13.1,13.1C373.6,346.3,367.7,352.1,360.4,352.1z"/>
	</g>
</g>
<g>
	<g>
		<path class="st0" d="M309.5,131.8h-89.8c-3.8,0-7.1,2.5-8.1,6.1l-17.2,60.4c-0.7,2.5-0.2,5.3,1.4,7.4c1.6,2.1,4.1,3.4,6.7,3.4h107
			c4.7,0,8.4-3.8,8.4-8.4v-60.4C317.9,135.6,314.1,131.8,309.5,131.8z M301,192.2h-87.4l12.4-43.5h75L301,192.2L301,192.2z"/>
	</g>
</g>
<g>
	<g>
		<path class="st0" d="M492.3,167.3h-15.7v-30.9c0-20.2-16.5-36.7-36.7-36.7H261.1c-4.7,0-8.4,3.8-8.4,8.4s3.8,8.4,8.4,8.4h178.8
			c10.9,0,19.8,8.9,19.8,19.8v39.3v119.7v35.2h-23.9h-2.5h0c-4.2-36.4-35.2-64.8-72.8-64.8s-68.6,28.4-72.8,64.8h0h-78.6h0
			c-4.2-36.4-35.2-64.8-72.8-64.8s-68.6,28.4-72.8,64.8h0h-3.1H36.7v-8h11.4c4.7,0,8.4-3.8,8.4-8.4v-49c0-4.7-3.8-8.4-8.4-8.4H39
			l7.5-31.6L167,206.6c3.1-0.5,5.7-2.6,6.7-5.6l29.5-84.4h24.1c4.7,0,8.4-3.8,8.4-8.4s-3.8-8.4-8.4-8.4h-30.1c-3.6,0-6.8,2.3-8,5.7
			l-29.8,85.3L38.3,209.3c-3.4,0.5-6.1,3.1-6.9,6.4l-9.7,41.1H8.4c-4.7,0-8.4,3.8-8.4,8.4v49c0,4.7,3.8,8.4,8.4,8.4h11.4V339
			c0,4.7,3.8,8.4,8.4,8.4h35.2c4.2,36.4,35.2,64.8,72.8,64.8s68.6-28.4,72.8-64.8h78.6c4.2,36.4,35.2,64.8,72.8,64.8
			s68.6-28.4,72.8-64.8h34.9c4.7,0,8.4-3.8,8.4-8.4v-35.2h15.7c10.9,0,19.7-8.8,19.7-19.7V187C512,176.1,503.2,167.3,492.3,167.3z
			 M16.9,305.8v-32.1h11.4h11.4v32.1H28.3H16.9z M192.7,339c0,31.1-25.3,56.4-56.4,56.4c-31.1,0-56.4-25.3-56.4-56.4
			c0-0.9,0-1.7,0.1-2.6c0-0.3,0-0.5,0-0.8c0-0.6,0.1-1.2,0.1-1.8c0-0.3,0.1-0.6,0.1-0.8c3-28.2,27-50.3,56.1-50.3
			c28.2,0,51.7,20.8,55.7,47.9h0c0,0,0,0.1,0,0.1c0.1,0.7,0.2,1.5,0.3,2.2c0,0.3,0.1,0.6,0.1,0.9c0.1,0.6,0.1,1.1,0.1,1.7
			c0,0.3,0,0.6,0,0.9C192.6,337.3,192.7,338.1,192.7,339C192.7,339,192.7,339,192.7,339L192.7,339L192.7,339z M360.4,395.4
			c-31.1,0-56.4-25.3-56.4-56.4c0-0.9,0-1.7,0.1-2.6c0-0.3,0-0.6,0-0.8c0-0.6,0.1-1.2,0.1-1.8c0-0.3,0.1-0.6,0.1-0.9
			c3-28.2,27-50.3,56-50.3c29,0,53,22.1,56,50.3c0,0.3,0.1,0.6,0.1,0.9c0.1,0.6,0.1,1.2,0.1,1.8c0,0.3,0,0.6,0,0.8
			c0,0.9,0.1,1.7,0.1,2.6C416.8,370.1,391.5,395.4,360.4,395.4z M495.1,284.2c0,1.6-1.3,2.8-2.8,2.8h-15.7V184.1h15.7
			c1.6,0,2.8,1.3,2.8,2.8V284.2z"/>
	</g>
</g>
<g>
	<g>
		<path class="st0" d="M437.5,131.8h-38.7c-4.7,0-8.4,3.8-8.4,8.4s3.8,8.4,8.4,8.4h30.2v43.5h-79.4v-43.5h15.4
			c4.7,0,8.4-3.8,8.4-8.4s-3.8-8.4-8.4-8.4h-23.8c-4.7,0-8.4,3.8-8.4,8.4v60.4c0,4.7,3.8,8.4,8.4,8.4h96.2c4.7,0,8.4-3.8,8.4-8.4
			v-60.4C446,135.6,442.2,131.8,437.5,131.8z"/>
	</g>
</g>
<g>
	<g>
		<path class="st0" d="M309.5,227.1h-30.1c-4.7,0-8.4,3.8-8.4,8.4s3.8,8.4,8.4,8.4h30.1c4.7,0,8.4-3.8,8.4-8.4
			S314.1,227.1,309.5,227.1z"/>
	</g>
</g>
<g>
	<g>
		<path class="st0" d="M434.1,227.1h-30.1c-4.7,0-8.4,3.8-8.4,8.4s3.8,8.4,8.4,8.4h30.1c4.7,0,8.4-3.8,8.4-8.4
			S438.7,227.1,434.1,227.1z"/>
	</g>
</g>
</svg>
