<?xml version="1.0" encoding="utf-8"?>
<!-- Generator: Adobe Illustrator 21.1.0, SVG Export Plug-In . SVG Version: 6.00 Build 0)  -->
<svg version="1.1" id="Capa_1" xmlns="http://www.w3.org/2000/svg" xmlns:xlink="http://www.w3.org/1999/xlink" x="0px" y="0px"
	 viewBox="0 0 493.2 493.2" style="enable-background:new 0 0 493.2 493.2;" xml:space="preserve">
<style type="text/css">
	.st0{fill:#FF8A00;}
</style>
<g id="cutlery">
	<path class="st0" d="M87.9,0c-24.5,0-57,66-57,116.4c0,33.2,11.1,51.2,27.7,59.7c13.4,6.8,21.3,21.2,19.8,36.1L54.5,456.4
		c-0.9,9.4,2.2,18.8,8.5,25.8c6.4,7,15.4,11,24.9,11s18.5-4,24.9-11c6.4-7,9.5-16.4,8.5-25.8L97.4,212.2c-1.5-15,6.4-29.3,19.8-36.1
		c16.6-8.4,27.7-26.5,27.7-59.7C145,66,113.8,0,87.9,0z"/>
	<path class="st0" d="M306.7,0c-4.5,0-8.2,3.7-8.2,8.2v100.7c0,4.5-3.7,8.2-8.2,8.2c-4.5,0-8.2-3.7-8.2-8.2V8.2
		c0-4.5-3.7-8.2-8.2-8.2h-0.1c-4.5,0-8.2,3.7-8.2,8.2v100.7c0,4.5-3.7,8.2-8.2,8.2c-4.5,0-8.2-3.7-8.2-8.2V8.2
		c0-4.5-3.7-8.2-8.2-8.2H241c-4.5,0-8.2,3.7-8.2,8.2v100.7c0,4.5-3.7,8.2-8.2,8.2c-4.5,0-8.2-3.7-8.2-8.2V8.2c0-4.5-3.7-8.2-8.2-8.2
		c-4.3,0-7.8,3.5-7.8,7.7c0,25.5,0,105.3,0,108.7c0,33.2,11.1,51.2,27.7,59.7c13.4,6.8,21.3,21.2,19.8,36.1l-23.9,244.1
		c-0.9,9.4,2.2,18.8,8.5,25.8c6.4,7,15.4,11,24.9,11c9.5,0,18.5-4,24.9-11c6.4-7,9.5-16.4,8.5-25.8l-23.9-244.1
		c-1.5-15,6.4-29.3,19.8-36.1c16.6-8.4,27.7-26.5,27.7-59.7c0-3.4,0-83.2,0-108.7C314.5,3.5,311,0,306.7,0z"/>
	<path class="st0" d="M440.2,232.9c3.1,0,5.6-2.5,5.6-5.6V9.8c0-5.4-4.4-9.8-9.8-9.8c-4.7,0-8.8,3.1-10.1,7.6l-34.1,118.7
		c-10,34.7-3.9,72.1,16.6,101.9c2,2.9,5.3,4.6,8.8,4.6l-21.9,223.5c-0.9,9.4,2.2,18.8,8.5,25.8c6.4,7,15.4,11,24.9,11
		c9.5,0,18.5-4,24.9-11c6.4-7,9.5-16.4,8.5-25.8L440.2,232.9z"/>
</g>
</svg>
