<?xml version="1.0" encoding="utf-8"?>
<!-- Generator: Adobe Illustrator 21.1.0, SVG Export Plug-In . SVG Version: 6.00 Build 0)  -->
<svg version="1.1" id="Layer_1" xmlns="http://www.w3.org/2000/svg" xmlns:xlink="http://www.w3.org/1999/xlink" x="0px" y="0px"
	 viewBox="0 0 64 64" style="enable-background:new 0 0 64 64;" xml:space="preserve">
<style type="text/css">
	.st0{fill:#6E6E6E;}
</style>
<g>
	<g>
		<path class="st0" d="M32,0C14.4,0,0,14.4,0,32s14.4,32,32,32s32-14.4,32-32S49.6,0,32,0z M32,60C16.6,60,4,47.4,4,32S16.6,4,32,4
			s28,12.6,28,28S47.4,60,32,60z"/>
		<circle class="st0" cx="20.5" cy="21.4" r="4.3"/>
		<circle class="st0" cx="43.5" cy="21.4" r="4.3"/>
		<path class="st0" d="M32,36.6c-9.7,0-14.4,6.9-15.4,10.5c-0.3,1.1,0.3,2.2,1.3,2.5c0.2,0.1,0.4,0.1,0.6,0.1c0.9,0,1.6-0.6,1.9-1.4
			c0.1-0.3,2.5-7.6,11.6-7.6c9.1,0,11.5,7.3,11.6,7.6c0.3,0.9,1.1,1.4,1.9,1.4c0.2,0,0.4,0,0.6-0.1c1.1-0.3,1.7-1.4,1.3-2.5
			C46.4,43.5,41.7,36.6,32,36.6z"/>
	</g>
</g>
</svg>
