<?xml version="1.0" encoding="utf-8"?>
<!-- Generator: Adobe Illustrator 21.1.0, SVG Export Plug-In . SVG Version: 6.00 Build 0)  -->
<svg version="1.1" id="Layer_1" xmlns="http://www.w3.org/2000/svg" xmlns:xlink="http://www.w3.org/1999/xlink" x="0px" y="0px"
	 viewBox="0 0 512 512" style="enable-background:new 0 0 512 512;" xml:space="preserve">
<style type="text/css">
	.st0{fill:#6E6E6E;}
</style>
<g>
	<g>
		<path class="st0" d="M495,396c-8-8-20.9-8-28.9,0l-20.6,20.6L420,391.1l68.3-68.3c8-8,8-20.9,0-28.9s-20.9-8-28.9,0L443,310.3
			l-168.9-169c-17.7-17.7-63-44.9-116.7-12.9L45.9,17C37.9,9,25,9,17,17s-8,20.9,0,28.9l111.5,111.5c-23.1,36.3-18.8,85,12.9,116.7
			L310.5,443l-16.4,16.3c-8,8-8,20.9,0,28.9c4,4,17.7,11.2,28.9,0l30.8-30.8l37.5-37.5l25.5,25.5L396.1,466c-8,8-8,20.9,0,28.9
			c4,4,17.4,11.5,28.9,0l70-70C503,416.9,503,404,495,396L495,396z M339.3,414.2l-43-42.9l25.4-25.4c8-8,8-20.9,0-28.9
			s-20.9-8-28.9,0l-25.4,25.4l-19.7-19.7l25.4-25.4c8-8,8-20.9,0-28.9s-20.9-8-28.9,0l-25.4,25.4L199.2,274l25.4-25.4
			c8-8,8-20.9,0-28.9s-20.9-8-28.9,0l-25.4,25.4l-0.1-0.1c-20.7-20.7-20.7-54.3,0-74.9c14.7-14.7,49-25.9,75,0l169.1,169
			L339.3,414.2L339.3,414.2z"/>
		<path class="st0" d="M115.4,300c-7.7-6.6-19.1-6.6-26.7,0c-12.6,10.9-75.1,67.3-75.1,112c0,48.8,39.7,88.5,88.5,88.5
			s88.5-39.7,88.5-88.5C190.5,367.3,127.9,310.8,115.4,300z M102,459.6c-26.3,0-47.7-21.4-47.7-47.6c0-15.9,25.1-46.6,47.7-68.8
			c22.6,22.2,47.7,52.8,47.7,68.8C149.7,438.2,128.3,459.6,102,459.6z"/>
	</g>
</g>
</svg>
